<svg xmlns="http://www.w3.org/2000/svg" width="56" height="56.148" viewBox="0 0 56 56.148">
  <g id="Group_1" data-name="Group 1" transform="translate(0 -0.04)">
    <path id="Path_1" data-name="Path 1" d="M46.416,46.908c-10.77,10.77-26.064,10.77-36.833,0,2.507-2.507,7.264-5.286,13.632-7.833V33.98s-2.547-.894-2.547-6.368c-2.547,0-2.547-5.094,0-5.094,0-.734-4.266-7.465,1.1-6.368,1.274-5.094,13.828-5.094,15.1,0,.759,3.034-1.141,5.83-1.141,6.368,2.468,0,1.793,5.094.02,5.094,0,5.474-2.343,6.368-2.343,6.368v5.094C39.771,41.622,43.167,43.747,46.416,46.908Z" fill="none" stroke="#555" stroke-linecap="round" stroke-linejoin="round" stroke-width="2.208"/>
    <path id="Path_2" data-name="Path 2" d="M55,28.114A27,27,0,1,1,28,1.04,27.037,27.037,0,0,1,55,28.114Z" fill="none" stroke="#555" stroke-width="2"/>
  </g>
</svg>
